<?xml version="1.0" encoding="UTF-8"?>
<svg version="1.1" xmlns="http://www.w3.org/2000/svg" width="96" height="96">
<path d="M0 0 C8.80288754 6.34043826 15.4186507 14.72648904 17.58203125 25.4921875 C18.92007691 37.90936834 17.85729499 48.88109459 10.39453125 59.2421875 C3.58210875 67.3274193 -4.72289951 73.55522767 -15.48876953 74.71533203 C-28.40007937 75.61089799 -39.16843729 74.04490094 -49.3515625 65.46484375 C-57.86959925 57.33325857 -62.42046403 48.68416257 -62.88867188 36.85693359 C-63.04371176 24.34263074 -60.22647828 14.71931927 -51.41796875 5.4921875 C-37.63784493 -7.66275112 -16.31305228 -10.17259803 0 0 Z " fill="#607D8B" transform="translate(70.41796875,13.5078125)"/>
<path d="M0 0 C8.80288754 6.34043826 15.4186507 14.72648904 17.58203125 25.4921875 C18.92007691 37.90936834 17.85729499 48.88109459 10.39453125 59.2421875 C3.58210875 67.3274193 -4.72289951 73.55522767 -15.48876953 74.71533203 C-28.40007937 75.61089799 -39.16843729 74.04490094 -49.3515625 65.46484375 C-57.86959925 57.33325857 -62.42046403 48.68416257 -62.88867188 36.85693359 C-63.04371176 24.34263074 -60.22647828 14.71931927 -51.41796875 5.4921875 C-37.63784493 -7.66275112 -16.31305228 -10.17259803 0 0 Z M-47.41796875 10.4921875 C-54.42554603 19.76651562 -57.50579016 27.85108565 -56.41796875 39.4921875 C-54.49966576 49.68880476 -49.43976672 56.847425 -41.265625 63.15234375 C-33.63479516 68.17609545 -26.47758432 69.37952591 -17.41796875 68.4921875 C-6.32434318 65.98630138 0.81231402 61.72293836 7.0703125 52.23046875 C11.62347474 43.98300951 13.30179811 34.04090426 10.890625 24.859375 C7.35051479 15.1722115 1.76968481 8.27214989 -7.41796875 3.4921875 C-21.23932227 -2.52203037 -36.66131624 -0.35354702 -47.41796875 10.4921875 Z " fill="#8FA3AD" transform="translate(70.41796875,13.5078125)"/>
<path d="M0 0 C2.64 0 5.28 0 8 0 C8 9.9 8 19.8 8 30 C13.28 30 18.56 30 24 30 C24 31.98 24 33.96 24 36 C16.08 36 8.16 36 0 36 C0 24.12 0 12.24 0 0 Z " fill="#263238" transform="translate(38,28)"/>
</svg>
